<?xml version="1.0" encoding="UTF-8"?>
<svg width="16px" height="16px" viewBox="0 0 16 16" version="1.1" xmlns="http://www.w3.org/2000/svg" xmlns:xlink="http://www.w3.org/1999/xlink">
    <!-- Generator: Sketch 60.1 (88133) - https://sketch.com -->
    <title>question (2)</title>
    <desc>Created with Sketch.</desc>
    <g id="Page-1" stroke="none" stroke-width="1" fill="none" fill-rule="evenodd">
        <g id="Home---Full-Copy" transform="translate(-1033.000000, -47.000000)" fill="#000000" fill-rule="nonzero">
            <g id="Elements-/-Header-/-New-no-Login">
                <g id="top-header" transform="translate(0.000000, 35.000000)">
                    <g id="Contact" transform="translate(657.000000, 10.000000)">
                        <g id="Group-9" transform="translate(0.000000, 0.000000)">
                            <g id="Group-8-Copy" transform="translate(376.000000, 0.000000)">
                                <g id="question-(2)" transform="translate(0.000000, 2.000000)">
                                    <path d="M15.9371695,14.4892199 L14.8387615,11.2925659 C15.3670748,10.2246605 15.6464815,9.03428632 15.6483565,7.83656844 C15.651544,5.77400745 14.8535115,3.82375887 13.4011966,2.34510369 C11.9486318,0.866198521 10.0130349,0.0337616273 7.95100034,0.00104290112 C6.87065485,-0.0163008363 5.82234066,0.182761519 4.83358907,0.592042471 C3.87993128,0.986792183 3.02471115,1.55863552 2.29170997,2.29166623 C1.55867754,3.0246657 0.986832863,3.87988383 0.592082227,4.83353938 C0.182737817,5.82228866 -0.0161062541,6.87113165 0.00101877348,7.95094336 C0.0336750761,10.0129731 0.866145169,11.9485655 2.34502255,13.4011269 C3.82077493,14.8505946 5.76602807,15.6483753 7.82415639,15.648344 C7.8281564,15.648344 7.83243765,15.648344 7.83646891,15.648344 C9.03422084,15.6465003 10.2245665,15.3670942 11.292537,14.8387508 L14.4891984,15.9371563 C14.6121361,15.9794063 14.7381363,16 14.8627615,16 C15.1588557,16 15.4468249,15.8836563 15.6652315,15.6652502 C15.975607,15.354938 16.0797947,14.9043133 15.9371695,14.4892199 Z M7.74715626,12.2844715 C7.48124959,12.2844715 7.28434302,12.0671279 7.272843,11.8101593 C7.26137423,11.5540032 7.49906211,11.3358471 7.74715626,11.3358471 C8.01306294,11.3358471 8.20996951,11.5531907 8.22146953,11.8101593 C8.23296955,12.0662841 7.99525041,12.2844715 7.74715626,12.2844715 Z M8.22146953,8.66159909 L8.22146953,10.1696917 C8.22146953,10.4316291 8.00909419,10.6440039 7.74715626,10.6440039 C7.48521834,10.6440039 7.272843,10.4316291 7.272843,10.1696917 L7.272843,8.2351619 C7.272843,7.9732246 7.48521834,7.76084975 7.74715626,7.76084975 C8.52528252,7.76084975 9.15837729,7.12775646 9.15837729,6.34963203 C9.15837729,5.57150759 8.52528252,4.93841431 7.74715626,4.93841431 C6.96903001,4.93841431 6.33593524,5.57150759 6.33593524,6.34963203 C6.33593524,6.61156934 6.1235599,6.82394418 5.86162197,6.82394418 C5.59968405,6.82394418 5.38730871,6.61156934 5.38730871,6.34963203 C5.38730871,5.04844548 6.44593542,3.98979 7.74715626,3.98979 C9.04834586,3.98979 10.1070038,5.04841423 10.1070038,6.34963203 C10.1070038,7.4884437 9.29615876,8.441443 8.22146953,8.66159909 Z" id="Shape"></path>
                                </g>
                            </g>
                        </g>
                    </g>
                </g>
            </g>
        </g>
    </g>
</svg>