<?xml version="1.0" encoding="UTF-8"?>
<svg width="138px" height="35px" viewBox="0 0 138 35" version="1.1" xmlns="http://www.w3.org/2000/svg" xmlns:xlink="http://www.w3.org/1999/xlink">
    <!-- Generator: Sketch 52.2 (67145) - http://www.bohemiancoding.com/sketch -->
    <title>Page 1</title>
    <desc>Created with Sketch.</desc>
    <defs>
        <polygon id="path-1" points="11.9183396 0.434860465 0.308335235 0.434860465 0.308335235 33.2791012 11.9183396 33.2791012 11.9183396 0.434860465"></polygon>
        <polygon id="path-3" points="12.0721439 0.434860465 0.462139535 0.434860465 0.462139535 33.2791012 12.0721439 33.2791012 12.0721439 0.434860465"></polygon>
    </defs>
    <g id="Symbols" stroke="none" stroke-width="1" fill="none" fill-rule="evenodd">
        <g id="Elements/-Header-/-LA-/-before-login" transform="translate(-165.000000, -12.000000)">
            <g id="Header">
                <g id="Group-3">
                    <g id="Page-1" transform="translate(165.000000, 12.000000)">
                        <path d="M2.15358315,32.2045465 C1.45116981,32.2045465 0.842411584,32.7629651 0.468598508,33.7867326 L0.000322948662,33.7867326 L0.000322948662,25.877407 L0.421770952,25.877407 C1.21703203,30.4370233 4.96242914,33.1809767 8.66099868,33.1809767 C11.4230171,33.1809767 13.3889671,31.599593 13.3889671,29.4132558 C13.3889671,27.3199884 11.9381202,26.5288953 7.20934445,25.1793837 C3.09013427,24.016814 0.234460728,22.9465116 0.234460728,18.8995814 C0.234460728,15.5498721 2.76234138,13.4566047 6.31962089,13.4566047 C9.03481176,13.4566047 10.2523282,14.6657093 11.7039824,14.6657093 C12.452416,14.6657093 13.0611742,14.2934302 13.3889671,13.5031395 L13.8572427,13.5031395 L13.8572427,20.5740349 L13.4357946,20.5740349 C12.6865538,16.7589767 10.0181904,14.1072907 6.08629048,14.1072907 C3.9322229,14.1072907 2.20041071,15.5033372 2.20041071,17.5500698 C2.20041071,19.736407 4.02587802,20.4344302 7.95858534,21.4581977 C13.0611742,22.806907 15.3549171,24.2494884 15.3549171,27.9241395 C15.3549171,31.6461279 12.4992435,33.8324651 8.47368846,33.8324651 C5.57118736,33.8324651 3.27663712,32.2045465 2.15358315,32.2045465" id="Fill-1" fill="#231F20"></path>
                        <path d="M33.0034963,23.6444547 C33.0034963,18.2480128 31.599477,13.8753384 27.8072523,13.8753384 C24.0150276,13.8753384 22.6110083,18.154943 22.6110083,23.5513849 C22.6110083,28.9012919 23.9213725,33.4135709 27.8072523,33.4135709 C31.6923247,33.4135709 33.0034963,28.9943616 33.0034963,23.6444547 M18.6314735,23.5979198 C18.6314735,17.5499895 23.4062694,13.22385 27.8072523,13.22385 C32.2074278,13.22385 36.9362036,17.4569198 36.9362036,23.50485 C36.9362036,29.4131756 32.2074278,34.0650593 27.8072523,34.0650593 C23.4062694,34.0650593 18.6314735,29.5062453 18.6314735,23.5979198" id="Fill-3" fill="#231F20"></path>
                        <path d="M40.1185397,23.7376047 C40.1185397,18.0154186 44.752853,13.2239302 50.2300623,13.2239302 C53.8818043,13.2239302 56.5501676,15.7360116 56.5501676,18.4342326 C56.5501676,20.0156163 55.5199614,20.9928488 54.2095972,20.9928488 C52.9452532,20.9928488 52.056337,19.9225465 52.056337,18.8065116 C52.056337,17.8292791 52.6642878,16.9451163 53.7413216,16.665907 C54.3032523,16.5271047 54.7247003,16.7589767 54.7247003,16.3866977 C54.7247003,15.5498721 53.0857358,13.967686 50.1364072,13.967686 C45.9235419,13.967686 44.1909223,17.9223488 44.1909223,23.5049302 C44.1909223,28.6221628 46.2513348,32.4837558 50.5110276,32.4837558 C53.3198736,32.4837558 55.1929759,30.9954419 56.5969952,29.1340465 L57.0652707,29.4597907 C55.4731338,32.1114767 52.5714401,34.0651395 48.9665257,34.0651395 C44.2845774,34.0651395 40.1185397,30.0647442 40.1185397,23.7376047" id="Fill-5" fill="#231F20"></path>
                        <path d="M60.9492935,6.10585814 C60.9492935,4.71061395 62.1199824,3.54724186 63.5240018,3.54724186 C64.9288284,3.54724186 66.09871,4.71061395 66.09871,6.10585814 C66.09871,7.50110233 64.9288284,8.66447442 63.5240018,8.66447442 C62.1199824,8.66447442 60.9492935,7.50110233 60.9492935,6.10585814 L60.9492935,6.10585814 Z M59.4039842,32.7165907 L59.7786047,32.7165907 C61.8390171,32.7165907 62.3072927,32.204707 62.3072927,30.1106372 L62.3072927,17.1779512 C62.3072927,15.0381488 61.8390171,14.5262651 59.7786047,14.5262651 L59.4039842,14.5262651 L59.4039842,13.9213116 L65.6304344,13.5490326 L65.6304344,30.1106372 C65.6304344,32.204707 66.09871,32.7165907 68.1583151,32.7165907 L68.5329355,32.7165907 L68.5329355,33.3672767 L59.4039842,33.3672767 L59.4039842,32.7165907 Z" id="Fill-7" fill="#231F20"></path>
                        <path d="M85.5729179,23.6444547 C85.5729179,18.2480128 84.1688986,13.8753384 80.376674,13.8753384 C76.5844493,13.8753384 75.18043,18.154943 75.18043,23.5513849 C75.18043,28.9012919 76.4907942,33.4135709 80.376674,33.4135709 C84.2625538,33.4135709 85.5729179,28.9943616 85.5729179,23.6444547 M71.2008951,23.5979198 C71.2008951,17.5499895 75.9756911,13.22385 80.376674,13.22385 C84.7768495,13.22385 89.5056253,17.4569198 89.5056253,23.50485 C89.5056253,29.4131756 84.7768495,34.0650593 80.376674,34.0650593 C75.9756911,34.0650593 71.2008951,29.5062453 71.2008951,23.5979198" id="Fill-9" fill="#231F20"></path>
                        <g id="Group-13" transform="translate(92.847740, 0.367626)">
                            <mask id="mask-2" fill="white">
                                <use xlink:href="#path-1"></use>
                            </mask>
                            <g id="Clip-12"></g>
                            <path d="M0.308335235,30.3482058 C0.308335235,29.3244384 0.495645459,28.4876128 0.869458534,27.1381012 L7.37687407,4.52856628 C7.56418429,3.87707791 7.70466696,3.31946163 7.70466696,2.90064767 C7.70466696,1.96995 7.09590873,1.78381047 5.69188943,1.78381047 L4.3338903,1.78381047 L4.52120053,1.13232209 L11.9183396,0.434298837 L4.38071786,26.7658221 C3.95926986,28.2084035 3.63147696,29.5105779 3.63147696,30.1155314 C3.63147696,30.9996942 3.91324967,31.4642407 4.66168319,31.4642407 C5.59823431,31.4642407 7.09590873,29.9759267 8.92218341,26.9519616 L9.43728653,27.3242407 C7.6578394,30.8135547 5.55140676,33.2791012 3.16400878,33.2791012 C1.29090654,33.2791012 0.308335235,32.0691942 0.308335235,30.3482058" id="Fill-11" fill="#231F20" mask="url(#mask-2)"></path>
                        </g>
                        <g id="Group-16" transform="translate(104.958315, 0.367626)">
                            <mask id="mask-4" fill="white">
                                <use xlink:href="#path-3"></use>
                            </mask>
                            <g id="Clip-15"></g>
                            <path d="M0.462139535,30.3482058 C0.462139535,29.3244384 0.649449759,28.4876128 1.02326283,27.1381012 L7.53067837,4.52856628 C7.71798859,3.87707791 7.85847126,3.31946163 7.85847126,2.90064767 C7.85847126,1.96995 7.24971303,1.78381047 5.84569373,1.78381047 L4.4876946,1.78381047 L4.67500483,1.13232209 L12.0721439,0.434298837 L4.53452216,26.7658221 C4.11307416,28.2084035 3.78528126,29.5105779 3.78528126,30.1155314 C3.78528126,30.9996942 4.06705397,31.4642407 4.81548749,31.4642407 C5.75203861,31.4642407 7.24971303,29.9759267 9.07598771,26.9519616 L9.59109083,27.3242407 C7.8116437,30.8135547 5.70521106,33.2791012 3.31781308,33.2791012 C1.44471084,33.2791012 0.462139535,32.0691942 0.462139535,30.3482058" id="Fill-14" fill="#231F20" mask="url(#mask-4)"></path>
                        </g>
                        <path d="M130.418457,25.4122988 L130.418457,22.0625895 C123.256263,23.5051709 121.945092,25.9707174 121.945092,28.6224035 C121.945092,30.7156709 123.068146,32.2505198 125.222213,32.2505198 C127.515956,32.2505198 130.418457,30.5760663 130.418457,25.4122988 M118.059212,29.4134965 C118.059212,25.4588337 121.617299,23.3655663 130.418457,21.3188337 L130.418457,19.9693221 C130.418457,15.5035779 128.639817,13.9679267 125.830971,13.9679267 C123.302283,13.9679267 121.149023,15.0382291 121.149023,15.8750547 C121.149023,16.0146593 121.195851,16.0611942 121.383161,16.0611942 C122.319712,16.0611942 123.349918,16.945357 123.349918,18.1087291 C123.349918,19.3178337 122.413367,20.2485314 121.243486,20.2485314 C120.025969,20.2485314 119.136246,19.3643686 119.136246,18.0156593 C119.136246,15.5966477 121.710954,13.3164384 126.719888,13.3164384 C130.465285,13.3164384 133.742406,14.66595 133.742406,20.1554616 L133.742406,29.6927058 C133.742406,31.6463686 134.304337,32.2505198 134.959923,32.2505198 C136.082977,32.2505198 136.551252,31.08795 136.59808,28.5293337 L137.252858,28.5293337 C137.160011,32.948543 135.614701,33.7861709 133.695579,33.7861709 C131.870111,33.7861709 130.184319,32.7624035 130.418457,29.4134965 L130.324802,29.4134965 C129.435886,31.8325081 126.626233,33.8792407 123.349918,33.8792407 C120.353762,33.8792407 118.059212,32.3909267 118.059212,29.4134965" id="Fill-17" fill="#231F20"></path>
                    </g>
                </g>
            </g>
        </g>
    </g>
</svg>